<?xml version="1.0" encoding="UTF-8" standalone="no"?>
<svg
   height="48"
   width="48"
   version="1.1"
   id="svg161"
   sodipodi:docname="restore.svg"
   inkscape:version="1.2.2 (732a01da63, 2022-12-09)"
   xmlns:inkscape="http://www.inkscape.org/namespaces/inkscape"
   xmlns:sodipodi="http://sodipodi.sourceforge.net/DTD/sodipodi-0.dtd"
   xmlns="http://www.w3.org/2000/svg"
   xmlns:svg="http://www.w3.org/2000/svg">
  <defs
     id="defs165">
    <clipPath
       clipPathUnits="userSpaceOnUse"
       id="clipPath1145">
      <g
         inkscape:label="Clip"
         id="use1147" />
    </clipPath>
  </defs>
  <sodipodi:namedview
     id="namedview163"
     pagecolor="#ffffff"
     bordercolor="#000000"
     borderopacity="0.25"
     inkscape:showpageshadow="2"
     inkscape:pageopacity="0.0"
     inkscape:pagecheckerboard="0"
     inkscape:deskcolor="#d1d1d1"
     showgrid="false"
     inkscape:zoom="21.395833"
     inkscape:cx="20.050633"
     inkscape:cy="21.709834"
     inkscape:window-width="2560"
     inkscape:window-height="1351"
     inkscape:window-x="2391"
     inkscape:window-y="-9"
     inkscape:window-maximized="1"
     inkscape:current-layer="layer1" />
  <g
     id="layer1"
     inkscape:label="background"
     style="display:inline"
     inkscape:groupmode="layer">
    <path
       id="path2766"
       style="display:inline;image-rendering:optimizeQuality;fill-opacity:1;opacity:1"
       d="m 14.403029,1.8518364 c -0.799999,0 -1.501563,0.2984381 -2.101563,0.8984375 -0.599999,0.5999994 -0.898437,1.3015633 -0.898437,2.1015625 V 9.767852 h 3 V 4.8518364 h 28 V 32.851836 h -1.927735 v 3 h 1.927735 c 0.799999,1e-6 1.49961,-0.300391 2.099609,-0.90039 0.6,-0.6 0.900391,-1.29961 0.900391,-2.09961 V 4.8518364 c 0,-0.7999992 -0.300391,-1.5015631 -0.900391,-2.1015625 -0.599999,-0.5999994 -1.29961,-0.8984375 -2.099609,-0.8984375 z" />
  </g>
  <g
     inkscape:groupmode="layer"
     id="layer2"
     inkscape:label="foreground"
     style="display:inline">
    <path
       d="M 10,41 Q 8.8,41 7.9,40.1 7,39.2 7,38 V 10 Q 7,8.8 7.9,7.9 8.8,7 10,7 H 38 Q 39.2,7 40.1,7.9 41,8.8 41,10 v 28 q 0,1.2 -0.9,2.1 Q 39.2,41 38,41 Z m 0,-3 H 38 V 10 H 10 Z m 0,-28 v 28 z"
       id="path159"
       style="display:inline;fill-opacity:1"
       inkscape:label="path159" />
  </g>
</svg>
