<?xml version="1.0" encoding="UTF-8" standalone="no"?>
<svg
   width="800px"
   height="800px"
   viewBox="0 0 48 48"
   version="1.1"
   id="svg5809"
   sodipodi:docname="add_link.svg"
   inkscape:version="1.2.2 (732a01da63, 2022-12-09)"
   xmlns:inkscape="http://www.inkscape.org/namespaces/inkscape"
   xmlns:sodipodi="http://sodipodi.sourceforge.net/DTD/sodipodi-0.dtd"
   xmlns="http://www.w3.org/2000/svg"
   xmlns:svg="http://www.w3.org/2000/svg"
   xmlns:rdf="http://www.w3.org/1999/02/22-rdf-syntax-ns#"
   xmlns:cc="http://creativecommons.org/ns#"
   xmlns:dc="http://purl.org/dc/elements/1.1/">
  <defs
     id="defs5813" />
  <sodipodi:namedview
     id="namedview5811"
     pagecolor="#ffffff"
     bordercolor="#000000"
     borderopacity="0.25"
     inkscape:showpageshadow="2"
     inkscape:pageopacity="0.0"
     inkscape:pagecheckerboard="0"
     inkscape:deskcolor="#d1d1d1"
     showgrid="false"
     inkscape:zoom="1"
     inkscape:cx="864"
     inkscape:cy="232.5"
     inkscape:window-width="2560"
     inkscape:window-height="1351"
     inkscape:window-x="2391"
     inkscape:window-y="-9"
     inkscape:window-maximized="1"
     inkscape:current-layer="svg5809" />
  <!-- Uploaded to: SVG Repo, www.svgrepo.com, Generator: SVG Repo Mixer Tools -->
  <title
     id="title5802">ic_fluent_link_48_regular</title>
  <desc
     id="desc5804">Created with Sketch.</desc>
  <g
     id="ðŸ”-Product-Icons"
     stroke="none"
     stroke-width="1"
     fill="none"
     fill-rule="evenodd"
     style="stroke:none;stroke-opacity:1;fill:#000000;fill-opacity:1">
    <g
       id="ic_fluent_link_48_regular"
       fill="#212121"
       fill-rule="nonzero"
       style="stroke:none;stroke-opacity:1;fill:#000000;fill-opacity:1">
      <path
         id="path6476"
         style="fill:#000000;fill-opacity:1;stroke:none;stroke-opacity:1"
         d="m 14.000039,14.000039 -0.279961,0.0038 C 8.3266591,14.152015 3.9999609,18.570766 3.9999609,24 c 0,5.522842 4.4772362,9.999961 10.0000781,9.999961 h 5.749922 l 0.127852,-0.0064 C 20.508132,33.929503 21,33.397247 21,32.750039 21,32.059684 20.440316,31.5 19.749961,31.5 H 14.000039 L 13.757227,31.4961 C 9.7274361,31.368004 6.5000391,28.060913 6.5000391,24 c 0,-4.142131 3.3578685,-7.5 7.4999999,-7.5 h 5.749922 l 0.127852,-0.0064 C 20.508132,16.429542 21,15.897169 21,15.249961 21,14.559606 20.440316,14.000039 19.749961,14.000039 Z m 14.25,0 -0.127852,0.0064 C 27.491868,14.070497 27,14.602753 27,15.249961 27,15.940316 27.559684,16.5 28.250039,16.5 h 5.749922 l 0.242812,0.0039 c 4.029791,0.128129 7.257188,3.339917 7.257188,7.40083 0,0 -0.0014,0.107253 0.01378,0.165196 0.01509,0.05757 0.04895,0.07524 0.101921,0.07524 l 2.296331,0.01653 c 0.10266,-0.10266 0.08811,-0.104837 0.08811,-0.552042 0,-5.522842 -4.477236,-9.609572 -10.000078,-9.609572 z m -15.250078,8.749922 -0.127734,0.0064 c -0.63032,0.06401 -1.122188,0.596386 -1.122188,1.243594 0,0.690355 0.559567,1.250039 1.249922,1.250039 h 22.000078 l 0.127734,-0.0064 c 0.63032,-0.06401 1.122188,-0.596386 1.122188,-1.243594 0,-0.690355 -0.559567,-1.250039 -1.249922,-1.250039 z"
         sodipodi:nodetypes="ccssccssccssccsscccssccssccsscccssccssc" />
    </g>
  </g>
  <path
     d="m 38.728163,24.908055 c 0.563271,0 1.019891,0.456621 1.019891,1.019891 v 6.119349 h 6.119348 c 0.563271,0 1.019891,0.456621 1.019891,1.019892 0,0.563271 -0.45662,1.019891 -1.019891,1.019891 h -6.119348 v 6.119349 c 0,0.563271 -0.45662,1.019891 -1.019891,1.019891 -0.563271,0 -1.019892,-0.45662 -1.019892,-1.019891 v -6.119349 h -6.119349 c -0.563271,0 -1.019891,-0.45662 -1.019891,-1.019891 0,-0.563271 0.45662,-1.019892 1.019891,-1.019892 h 6.119349 v -6.119349 c 0,-0.56327 0.456621,-1.019891 1.019892,-1.019891 z"
     id="path5894"
     style="stroke-width:1.35986" />
  <metadata
     id="metadata6479">
    <rdf:RDF>
      <cc:Work
         rdf:about="">
        <dc:title>ic_fluent_link_48_regular</dc:title>
      </cc:Work>
    </rdf:RDF>
  </metadata>
</svg>
